# xmcd CD database file
#
# Track frame offsets:
#	150
#	36012
#	74135
#	123602
#	155132
#	175025
#	190152
#	233977
#	266097
#	288247
#
# Disc length: 4178 seconds
#
# Revision: 2
# Processed by: cddbd v1.5.2PL0 Copyright (c) Steve Scherf et al.
# Submitted via: CDex 1.70beta2
#
DISCID=9710500a
DTITLE=Takashi Furuya - Takashi Furuya in Manhattan
DYEAR=1995
DGENRE=Jazz
TTITLE0=SACK OWOE
TTITLE1=LOVE WALKED IN
TTITLE2=INVITATION
TTITLE3=CHEROKEE
TTITLE4=AT THE BROOKLYN BRIDGE
TTITLE5=BLUES FOR MANHATTAN
TTITLE6=BODY AND SOUL
TTITLE7=JAPANESE OLD SONG (HIETSUKI BUSHI)
TTITLE8=WELL, TOU NRRDN'T
TTITLE9=WHAT ARE YOU DOING THE REST OF YOUR LIFE
EXTD=YEAR: 1995
EXTT0=
EXTT1=
EXTT2=
EXTT3=
EXTT4=
EXTT5=
EXTT6=
EXTT7=
EXTT8=
EXTT9=
PLAYORDER=
